# Blender v2.81 (sub 16) OBJ File: 'blockboi.blend'
# www.blender.org
mtllib blockboi.mtl
o Blockboi_Blockboi.002
v 17.421698 0.000000 -17.421698
v -17.421694 0.000000 17.421700
v -17.421700 0.000000 -17.421696
v 17.421701 0.000000 17.421692
v 19.961699 2.540001 -17.421698
v 17.421698 2.540001 -19.961699
v -17.421700 2.540001 -19.961697
v -19.961699 2.540001 -17.421696
v -19.961695 2.540001 17.421700
v -17.421694 2.540001 19.961700
v 17.421701 2.540001 19.961693
v 19.961702 2.540001 17.421692
v 17.421698 37.338001 -19.961699
v 19.961699 37.338001 -17.421698
v -17.421700 37.338001 -19.961697
v -19.961699 37.338001 -17.421696
v -19.961695 37.338001 17.421700
v -17.421694 37.338001 19.961700
v 17.421701 37.338001 19.961693
v 19.961702 37.338001 17.421692
v 17.421698 39.878002 -17.421698
v -17.421700 39.878002 -17.421696
v -17.421694 39.878002 17.421700
v 17.421701 39.878002 17.421692
v 19.936169 0.000000 -19.936169
v -19.936165 0.000000 19.936171
v -19.936169 0.000000 -19.936167
v 19.936172 0.000000 19.936163
v -19.936169 37.346981 -19.936167
v 19.936169 37.346981 -19.936169
v -19.936165 37.346981 19.936171
v 19.936172 37.346981 19.936163
vt 0.323007 0.677161
vt 0.555532 0.444488
vt 0.555532 0.677161
vt 0.323007 0.444488
vt 0.262479 0.182177
vt 0.279429 0.194171
vt 0.262479 0.206164
vt 0.555532 0.694123
vt 0.323007 0.694123
vt 0.009420 0.711498
vt 0.021405 0.694537
vt 0.033391 0.711498
vt 0.572482 0.444488
vt 0.572482 0.677161
vt 0.861158 0.030276
vt 0.873144 0.013315
vt 0.885130 0.030276
vt 0.323007 0.427526
vt 0.555532 0.427526
vt 0.759643 0.737353
vt 0.771629 0.720392
vt 0.783615 0.737353
vt 0.306056 0.677161
vt 0.306056 0.444488
vt 0.030257 0.206164
vt 0.030257 0.182177
vt 0.030257 0.370689
vt 0.262479 0.370689
vt 0.033391 0.943869
vt 0.009420 0.943869
vt 0.197811 0.943869
vt 0.197811 0.711498
vt 0.885130 0.262647
vt 0.861158 0.262647
vt 0.595223 0.737353
vt 0.759643 0.969724
vt 0.595223 0.969724
vt 0.783615 0.969724
vt 0.262479 0.017652
vt 0.030257 0.017652
vt 0.013306 0.194171
vt 0.597163 0.013330
vt 0.829687 0.030291
vt 0.597163 0.030291
vt 0.829687 0.013330
vt 0.021405 0.960830
vt 0.846638 0.030291
vt 0.829687 0.262965
vt 0.846638 0.262965
vt 0.873144 0.279608
vt 0.829687 0.279926
vt 0.597163 0.262965
vt 0.597163 0.279926
vt 0.771629 0.986685
vt 0.580212 0.262965
vt 0.580212 0.030291
vt 0.013304 0.667909
vt 0.279389 0.401654
vt 0.279389 0.667909
vt 0.013304 0.401654
vt 0.554429 0.207098
vt 0.305197 0.395369
vt 0.305197 0.207098
vt 0.554429 0.395369
vt 0.490293 0.969314
vt 0.302143 0.719922
vt 0.490293 0.719922
vt 0.302143 0.969314
vt 0.802442 0.719547
vt 0.990592 0.968939
vt 0.802442 0.968939
vt 0.990592 0.719547
vt 0.554429 0.018827
vt 0.305197 0.018827
vt 0.599108 0.693765
vt 0.865193 0.427509
vt 0.865193 0.693765
vt 0.599108 0.427509
vn 0.0000 -1.0000 0.0000
vn 0.5774 -0.5774 -0.5774
vn -0.0000 -0.7071 -0.7071
vn -0.5774 -0.5774 -0.5773
vn -0.7071 -0.7071 0.0000
vn -0.5774 -0.5774 0.5774
vn 0.0000 -0.7071 0.7071
vn 0.5774 -0.5774 0.5774
vn 0.7071 -0.7071 -0.0000
vn 0.7071 0.0000 -0.7071
vn -0.0000 0.0000 -1.0000
vn -0.7071 0.0000 -0.7071
vn -1.0000 0.0000 0.0000
vn -0.7071 0.0000 0.7071
vn 0.0000 0.0000 1.0000
vn 0.7071 0.0000 0.7071
vn 1.0000 0.0000 -0.0000
vn 0.5773 0.5773 -0.5774
vn -0.0000 0.7071 -0.7071
vn -0.5774 0.5774 -0.5773
vn -0.7071 0.7071 0.0000
vn -0.5774 0.5774 0.5774
vn 0.0000 0.7071 0.7071
vn 0.5774 0.5774 0.5774
vn 0.7071 0.7071 -0.0000
vn 0.0000 1.0000 -0.0000
usemtl Material.002
s off
f 1/1/1 2/2/1 3/3/1
f 1/1/1 4/4/1 2/2/1
f 5/5/2 1/6/2 6/7/2
f 1/1/3 7/8/3 6/9/3
f 1/1/3 3/3/3 7/8/3
f 7/10/4 3/11/4 8/12/4
f 3/3/5 9/13/5 8/14/5
f 3/3/5 2/2/5 9/13/5
f 9/15/6 2/16/6 10/17/6
f 2/2/7 11/18/7 10/19/7
f 2/2/7 4/4/7 11/18/7
f 11/20/8 4/21/8 12/22/8
f 4/4/9 5/23/9 12/24/9
f 4/4/9 1/1/9 5/23/9
f 5/5/10 13/25/10 14/26/10
f 5/5/10 6/7/10 13/25/10
f 6/7/11 15/27/11 13/25/11
f 6/7/11 7/28/11 15/27/11
f 7/10/12 16/29/12 15/30/12
f 7/10/12 8/12/12 16/29/12
f 8/12/13 17/31/13 16/29/13
f 8/12/13 9/32/13 17/31/13
f 9/15/14 18/33/14 17/34/14
f 9/15/14 10/17/14 18/33/14
f 10/35/15 19/36/15 18/37/15
f 10/35/15 11/20/15 19/36/15
f 11/20/16 20/38/16 19/36/16
f 11/20/16 12/22/16 20/38/16
f 12/39/17 14/26/17 20/40/17
f 12/39/17 5/5/17 14/26/17
f 14/26/18 13/25/18 21/41/18
f 13/42/19 22/43/19 21/44/19
f 13/42/19 15/45/19 22/43/19
f 15/30/20 16/29/20 22/46/20
f 16/47/21 23/48/21 22/43/21
f 16/47/21 17/49/21 23/48/21
f 17/34/22 18/33/22 23/50/22
f 18/51/23 24/52/23 23/48/23
f 18/51/23 19/53/23 24/52/23
f 19/36/24 20/38/24 24/54/24
f 20/55/25 21/44/25 24/52/25
f 20/55/25 14/56/25 21/44/25
f 24/52/26 22/43/26 23/48/26
f 24/52/26 21/44/26 22/43/26
f 25/57/1 26/58/1 27/59/1
f 25/57/1 28/60/1 26/58/1
f 25/61/11 29/62/11 30/63/11
f 25/61/11 27/64/11 29/62/11
f 27/65/13 31/66/13 29/67/13
f 27/65/13 26/68/13 31/66/13
f 26/69/15 32/70/15 31/71/15
f 26/69/15 28/72/15 32/70/15
f 28/73/17 30/63/17 32/74/17
f 28/73/17 25/61/17 30/63/17
f 32/75/26 29/76/26 31/77/26
f 32/75/26 30/78/26 29/76/26
